<?xml version="1.0" encoding="iso-8859-1"?>
<!-- Generator: Adobe Illustrator 19.0.0, SVG Export Plug-In . SVG Version: 6.00 Build 0)  -->
<svg version="1.1" id="Capa_1" xmlns="http://www.w3.org/2000/svg" xmlns:xlink="http://www.w3.org/1999/xlink" x="0px" y="0px"
	 viewBox="0 0 511.004 511.004" style="enable-background:new 0 0 511.004 511.004;" xml:space="preserve">
<g>
	<path d="M423.423,109.403c-9.984-22.593-24.211-42.661-42.286-59.646c-37.288-35.04-86.076-52.576-137.359-49.388
		C150.416,6.178,75.002,84.056,72.093,177.664c-2.156,69.352,34.276,133.213,95.08,166.662c15.315,8.425,24.83,24.621,24.83,42.267
		v60.911c0,17.369,14.131,31.5,31.5,31.5h0.5v0.5c0,17.369,14.131,31.5,31.5,31.5s31.5-14.131,31.5-31.5v-0.5h0.5
		c17.369,0,31.5-14.131,31.5-31.5v-60.912c0-17.622,9.586-33.857,25.018-42.37c58.587-32.319,94.982-93.903,94.982-160.719
		C439.002,157.727,433.76,132.796,423.423,109.403z M237.546,368.004l-32.792-150.843c0.895,0.816,1.871,1.888,3.086,3.279
		c3.897,4.458,9.234,10.564,19.633,10.564c10.4,0,15.738-6.105,19.636-10.563c3.521-4.027,5.048-5.437,8.343-5.437
		c3.31,0,4.84,1.411,8.37,5.441c3.902,4.456,9.247,10.559,19.654,10.559s15.752-6.103,19.654-10.559
		c1.231-1.406,2.217-2.487,3.122-3.306l-32.797,150.865H237.546z M231.477,383.004c0.006,0,0.011,0.001,0.017,0.001
		c0.009,0,0.018-0.001,0.027-0.001h47.96c0.009,0,0.018,0.001,0.027,0.001c0.006,0,0.011-0.001,0.017-0.001h24.585
		c-0.067,1.191-0.109,2.386-0.109,3.588v13.412h-97v-13.411c0-1.202-0.042-2.398-0.109-3.589H231.477z M207.002,415.004h97v17h-97
		V415.004z M272.002,479.504c0,9.098-7.402,16.5-16.5,16.5c-9.098,0-16.5-7.402-16.5-16.5v-0.5h33V479.504z M287.502,464.004h-64
		c-9.098,0-16.5-7.402-16.5-16.5v-0.5h97v0.5C304.002,456.602,296.6,464.004,287.502,464.004z M336.774,331.089
		c-14.615,8.062-25.224,21.413-29.982,36.915h-17.985l38.023-174.907c0.88-4.048-1.688-8.042-5.735-8.922
		c-4.049-0.879-8.042,1.688-8.922,5.735l-2.206,10.15c-9.401,0.568-14.415,6.272-18.119,10.502c-3.53,4.031-5.061,5.441-8.37,5.441
		s-4.84-1.411-8.37-5.441c-3.902-4.456-9.247-10.559-19.654-10.559c-10.399,0-15.738,6.105-19.635,10.563
		c-3.521,4.028-5.048,5.437-8.344,5.437c-3.294,0-4.819-1.409-8.34-5.436c-3.699-4.232-8.705-9.938-18.097-10.507l-2.206-10.15
		c-0.88-4.048-4.876-6.615-8.922-5.735c-4.047,0.88-6.616,4.874-5.735,8.922l38.023,174.907h-17.968
		c-4.732-15.502-15.286-28.821-29.827-36.82c-55.839-30.718-89.296-89.364-87.316-153.053C89.757,92.18,158.994,20.674,244.71,15.34
		c3.652-0.227,7.284-0.34,10.904-0.34c43.085,0,83.666,16.007,115.251,45.688c34.265,32.2,53.136,75.816,53.136,122.816
		C424.002,244.857,390.578,301.408,336.774,331.089z"/>
	<path d="M297.613,37.935c-5.518-1.594-11.194-2.885-16.871-3.837c-4.089-0.687-7.952,2.07-8.638,6.155s2.07,7.953,6.155,8.638
		c5.112,0.858,10.223,2.02,15.191,3.455c0.695,0.201,1.396,0.296,2.084,0.296c3.255,0,6.253-2.137,7.202-5.421
		C303.886,43.242,301.592,39.084,297.613,37.935z"/>
	<path d="M122.385,213.848c-1.129-4.975-1.987-10.078-2.55-15.167c-0.456-4.117-4.167-7.079-8.279-6.63
		c-4.117,0.455-7.085,4.162-6.63,8.279c0.625,5.65,1.577,11.315,2.831,16.839c0.79,3.48,3.882,5.841,7.307,5.841
		c0.55,0,1.108-0.061,1.667-0.188C120.77,221.905,123.302,217.888,122.385,213.848z"/>
	<path d="M180.014,297.249c-19.982-13.289-36.175-31.646-46.83-53.087c-1.843-3.71-6.344-5.223-10.054-3.379
		c-3.709,1.843-5.222,6.344-3.379,10.054c11.822,23.792,29.788,44.16,51.956,58.903c1.277,0.849,2.72,1.256,4.146,1.256
		c2.426,0,4.808-1.176,6.252-3.348C184.399,304.198,183.463,299.543,180.014,297.249z"/>
	<path d="M386.72,107.733c-14.574-25.187-35.93-45.555-61.761-58.903c-3.679-1.902-8.205-0.46-10.106,3.22
		c-1.901,3.68-0.46,8.204,3.22,10.106c23.28,12.03,42.528,30.388,55.664,53.089c1.39,2.402,3.909,3.745,6.499,3.745
		c1.275,0,2.567-0.326,3.75-1.01C387.57,115.906,388.795,111.318,386.72,107.733z"/>
</g>
<g>
</g>
<g>
</g>
<g>
</g>
<g>
</g>
<g>
</g>
<g>
</g>
<g>
</g>
<g>
</g>
<g>
</g>
<g>
</g>
<g>
</g>
<g>
</g>
<g>
</g>
<g>
</g>
<g>
</g>
</svg>
